<svg height="100%" version="1.1" width="100%" xmlns="http://www.w3.org/2000/svg" preserveAspectRatio="xMidYMid meet" viewBox="0 0 600 442" xmlns:xlink="http://www.w3.org/1999/xlink"><desc>Created with Snap</desc><defs/><g id="root" contentwidth="384.2" contentheight="114">
          <rect class="background" height="2000%" width="2000%" y="-1000%" x="-1000%" style="" fill="#ffffff"/>
          <g class="content" id="content" transform="matrix(1,0,0,1,52.9,0)">
            <g class="icon">
            <svg height="95" version="1.1" width="81" xmlns="http://www.w3.org/2000/svg" x="58" y="179" preserveAspectRatio="none" transform="matrix(1,0,0,1,0,0)"><desc>Created with Snap</desc><defs/><svg xmlns="http://www.w3.org/2000/svg" viewBox="120 180 81 95"><defs><linearGradient x1="50%" y1="0%" x2="50%" y2="100%" id="prefix-o3R-linearGradient-1"><stop stop-color="#DA5E78" offset="0%"/><stop stop-color="#B43043" offset="100%"/></linearGradient><linearGradient x1="24%" y1="21%" x2="79%" y2="78%" id="prefix-o3R-linearGradient-2"><stop stop-color="#FA7F67" offset="0%"/><stop stop-color="#FA375B" offset="100%"/></linearGradient><linearGradient x1="41%" y1="21%" x2="60%" y2="78%" id="prefix-o3R-linearGradient-3"><stop stop-color="#FA7F67" offset="0%"/><stop stop-color="#FA375B" offset="100%"/></linearGradient><linearGradient x1="3%" y1="50%" x2="97%" y2="50%" id="prefix-o3R-linearGradient-4"><stop stop-color="#FA7F67" offset="0%"/><stop stop-color="#FA375B" offset="100%"/></linearGradient></defs><path d="m200.58 249.156.264.423-40.163 25.102-.102.163-.08-.05-.078.05-.102-.163-40.163-25.101.264-.424 40.08 25.049 40.08-25.05Zm-39.83-68.906v43.111l39.5 24.688v-43.218h.5v43.53l.094.06-.094.149v.535h-.5v-.467l-39.5-24.689v46.867h-.5v-46.867l-39.5 24.689v.467h-.5v-.534l-.094-.15.094-.06v-43.53h.5v43.218l39.5-24.688V180.25h.5Z" id="prefix-o3R-形状结合" fill="url(#prefix-o3R-linearGradient-1)" fill-rule="nonzero"/></svg></svg><svg height="80" version="1.1" width="80" xmlns="http://www.w3.org/2000/svg" x="58" y="164" preserveAspectRatio="none" transform="matrix(1,0,0,1,0,0)"><desc>Created with Snap</desc><defs/><svg xmlns="http://www.w3.org/2000/svg" viewBox="120 165 80 80"><defs><linearGradient x1="50%" y1="0%" x2="50%" y2="100%" id="prefix-foU-linearGradient-1"><stop stop-color="#DA5E78" offset="0%"/><stop stop-color="#B43043" offset="100%"/></linearGradient><linearGradient x1="24%" y1="21%" x2="79%" y2="78%" id="prefix-foU-linearGradient-2"><stop stop-color="#FA7F67" offset="0%"/><stop stop-color="#FA375B" offset="100%"/></linearGradient><linearGradient x1="41%" y1="21%" x2="60%" y2="78%" id="prefix-foU-linearGradient-3"><stop stop-color="#FA7F67" offset="0%"/><stop stop-color="#FA375B" offset="100%"/></linearGradient><linearGradient x1="3%" y1="50%" x2="97%" y2="50%" id="prefix-foU-linearGradient-4"><stop stop-color="#FA7F67" offset="0%"/><stop stop-color="#FA375B" offset="100%"/></linearGradient></defs><path d="m188.954 176.375-10.835 46.074-46.077 10.838 10.73-46.186 46.182-10.726Zm-12.079 12.044-26.607 6.18-6.181 26.608 26.546-6.243 6.242-26.545Z" id="prefix-foU-矩形" fill="url(#prefix-foU-linearGradient-2)" fill-rule="nonzero" transform="rotate(45 160.498 204.831)"/></svg></svg><svg height="8" version="1.1" width="8" xmlns="http://www.w3.org/2000/svg" x="55" y="245" preserveAspectRatio="none" transform="matrix(1,0,0,1,0,0)"><desc>Created with Snap</desc><defs/><svg xmlns="http://www.w3.org/2000/svg" viewBox="117 246 8 8"><defs><linearGradient x1="50%" y1="0%" x2="50%" y2="100%" id="prefix-Sl6-linearGradient-1"><stop stop-color="#DA5E78" offset="0%"/><stop stop-color="#B43043" offset="100%"/></linearGradient><linearGradient x1="24%" y1="21%" x2="79%" y2="78%" id="prefix-Sl6-linearGradient-2"><stop stop-color="#FA7F67" offset="0%"/><stop stop-color="#FA375B" offset="100%"/></linearGradient><linearGradient x1="41%" y1="21%" x2="60%" y2="78%" id="prefix-Sl6-linearGradient-3"><stop stop-color="#FA7F67" offset="0%"/><stop stop-color="#FA375B" offset="100%"/></linearGradient><linearGradient x1="3%" y1="50%" x2="97%" y2="50%" id="prefix-Sl6-linearGradient-4"><stop stop-color="#FA7F67" offset="0%"/><stop stop-color="#FA375B" offset="100%"/></linearGradient></defs><circle id="prefix-Sl6-椭圆形" fill="url(#prefix-Sl6-linearGradient-2)" cx="121" cy="250" r="4"/></svg></svg><svg height="8" version="1.1" width="8" xmlns="http://www.w3.org/2000/svg" x="95" y="270" preserveAspectRatio="none" transform="matrix(1,0,0,1,0,0)"><desc>Created with Snap</desc><defs/><svg xmlns="http://www.w3.org/2000/svg" viewBox="157 271 8 8"><defs><linearGradient x1="50%" y1="0%" x2="50%" y2="100%" id="prefix-v7i-linearGradient-1"><stop stop-color="#DA5E78" offset="0%"/><stop stop-color="#B43043" offset="100%"/></linearGradient><linearGradient x1="24%" y1="21%" x2="79%" y2="78%" id="prefix-v7i-linearGradient-2"><stop stop-color="#FA7F67" offset="0%"/><stop stop-color="#FA375B" offset="100%"/></linearGradient><linearGradient x1="41%" y1="21%" x2="60%" y2="78%" id="prefix-v7i-linearGradient-3"><stop stop-color="#FA7F67" offset="0%"/><stop stop-color="#FA375B" offset="100%"/></linearGradient><linearGradient x1="3%" y1="50%" x2="97%" y2="50%" id="prefix-v7i-linearGradient-4"><stop stop-color="#FA7F67" offset="0%"/><stop stop-color="#FA375B" offset="100%"/></linearGradient></defs><circle id="prefix-v7i-椭圆形备份" fill="url(#prefix-v7i-linearGradient-2)" cx="161" cy="275" r="4"/></svg></svg><svg height="8" version="1.1" width="8" xmlns="http://www.w3.org/2000/svg" x="135" y="245" preserveAspectRatio="none" transform="matrix(1,0,0,1,0,0)"><desc>Created with Snap</desc><defs/><svg xmlns="http://www.w3.org/2000/svg" viewBox="197 246 8 8"><defs><linearGradient x1="50%" y1="0%" x2="50%" y2="100%" id="prefix-xdW-linearGradient-1"><stop stop-color="#DA5E78" offset="0%"/><stop stop-color="#B43043" offset="100%"/></linearGradient><linearGradient x1="24%" y1="21%" x2="79%" y2="78%" id="prefix-xdW-linearGradient-2"><stop stop-color="#FA7F67" offset="0%"/><stop stop-color="#FA375B" offset="100%"/></linearGradient><linearGradient x1="41%" y1="21%" x2="60%" y2="78%" id="prefix-xdW-linearGradient-3"><stop stop-color="#FA7F67" offset="0%"/><stop stop-color="#FA375B" offset="100%"/></linearGradient><linearGradient x1="3%" y1="50%" x2="97%" y2="50%" id="prefix-xdW-linearGradient-4"><stop stop-color="#FA7F67" offset="0%"/><stop stop-color="#FA375B" offset="100%"/></linearGradient></defs><circle id="prefix-xdW-椭圆形备份-2" fill="url(#prefix-xdW-linearGradient-2)" cx="201" cy="250" r="4"/></svg></svg><svg height="15" version="1.1" width="9" xmlns="http://www.w3.org/2000/svg" x="67" y="220" preserveAspectRatio="none" transform="matrix(1,0,0,1,0,0)"><desc>Created with Snap</desc><defs/><svg xmlns="http://www.w3.org/2000/svg" viewBox="129 221 9 15"><defs><linearGradient x1="50%" y1="0%" x2="50%" y2="100%" id="prefix-K51-linearGradient-1"><stop stop-color="#DA5E78" offset="0%"/><stop stop-color="#B43043" offset="100%"/></linearGradient><linearGradient x1="24%" y1="21%" x2="79%" y2="78%" id="prefix-K51-linearGradient-2"><stop stop-color="#FA7F67" offset="0%"/><stop stop-color="#FA375B" offset="100%"/></linearGradient><linearGradient x1="41%" y1="21%" x2="60%" y2="78%" id="prefix-K51-linearGradient-3"><stop stop-color="#FA7F67" offset="0%"/><stop stop-color="#FA375B" offset="100%"/></linearGradient><linearGradient x1="3%" y1="50%" x2="97%" y2="50%" id="prefix-K51-linearGradient-4"><stop stop-color="#FA7F67" offset="0%"/><stop stop-color="#FA375B" offset="100%"/></linearGradient></defs><path id="prefix-K51-矩形" fill="url(#prefix-K51-linearGradient-3)" d="m129 221 8.958 5.529V236L129 230.471z"/></svg></svg><svg height="15" version="1.1" width="9" xmlns="http://www.w3.org/2000/svg" x="81" y="229" preserveAspectRatio="none" transform="matrix(1,0,0,1,0,0)"><desc>Created with Snap</desc><defs/><svg xmlns="http://www.w3.org/2000/svg" viewBox="143 230 9 15"><defs><linearGradient x1="50%" y1="0%" x2="50%" y2="100%" id="prefix-0T9-linearGradient-1"><stop stop-color="#DA5E78" offset="0%"/><stop stop-color="#B43043" offset="100%"/></linearGradient><linearGradient x1="24%" y1="21%" x2="79%" y2="78%" id="prefix-0T9-linearGradient-2"><stop stop-color="#FA7F67" offset="0%"/><stop stop-color="#FA375B" offset="100%"/></linearGradient><linearGradient x1="41%" y1="21%" x2="60%" y2="78%" id="prefix-0T9-linearGradient-3"><stop stop-color="#FA7F67" offset="0%"/><stop stop-color="#FA375B" offset="100%"/></linearGradient><linearGradient x1="3%" y1="50%" x2="97%" y2="50%" id="prefix-0T9-linearGradient-4"><stop stop-color="#FA7F67" offset="0%"/><stop stop-color="#FA375B" offset="100%"/></linearGradient></defs><path id="prefix-0T9-矩形备份" fill="url(#prefix-0T9-linearGradient-3)" d="m143 230 8.958 5.529V245L143 239.471z"/></svg></svg><svg height="15" version="1.1" width="9" xmlns="http://www.w3.org/2000/svg" x="122" y="220" preserveAspectRatio="none" transform="matrix(1,0,0,1,0,0)"><desc>Created with Snap</desc><defs/><svg xmlns="http://www.w3.org/2000/svg" viewBox="184 221 9 15"><defs><linearGradient x1="50%" y1="0%" x2="50%" y2="100%" id="prefix-vwx-linearGradient-1"><stop stop-color="#DA5E78" offset="0%"/><stop stop-color="#B43043" offset="100%"/></linearGradient><linearGradient x1="24%" y1="21%" x2="79%" y2="78%" id="prefix-vwx-linearGradient-2"><stop stop-color="#FA7F67" offset="0%"/><stop stop-color="#FA375B" offset="100%"/></linearGradient><linearGradient x1="41%" y1="21%" x2="60%" y2="78%" id="prefix-vwx-linearGradient-3"><stop stop-color="#FA7F67" offset="0%"/><stop stop-color="#FA375B" offset="100%"/></linearGradient><linearGradient x1="3%" y1="50%" x2="97%" y2="50%" id="prefix-vwx-linearGradient-4"><stop stop-color="#FA7F67" offset="0%"/><stop stop-color="#FA375B" offset="100%"/></linearGradient></defs><path id="prefix-vwx-矩形" fill="url(#prefix-vwx-linearGradient-3)" transform="matrix(-1 0 0 1 376.958 0)" d="m184 221 8.958 5.529V236L184 230.471z"/></svg></svg><svg height="15" version="1.1" width="9" xmlns="http://www.w3.org/2000/svg" x="108" y="229" preserveAspectRatio="none" transform="matrix(1,0,0,1,0,0)"><desc>Created with Snap</desc><defs/><svg xmlns="http://www.w3.org/2000/svg" viewBox="170 230 9 15"><defs><linearGradient x1="50%" y1="0%" x2="50%" y2="100%" id="prefix-7PN-linearGradient-1"><stop stop-color="#DA5E78" offset="0%"/><stop stop-color="#B43043" offset="100%"/></linearGradient><linearGradient x1="24%" y1="21%" x2="79%" y2="78%" id="prefix-7PN-linearGradient-2"><stop stop-color="#FA7F67" offset="0%"/><stop stop-color="#FA375B" offset="100%"/></linearGradient><linearGradient x1="41%" y1="21%" x2="60%" y2="78%" id="prefix-7PN-linearGradient-3"><stop stop-color="#FA7F67" offset="0%"/><stop stop-color="#FA375B" offset="100%"/></linearGradient><linearGradient x1="3%" y1="50%" x2="97%" y2="50%" id="prefix-7PN-linearGradient-4"><stop stop-color="#FA7F67" offset="0%"/><stop stop-color="#FA375B" offset="100%"/></linearGradient></defs><path id="prefix-7PN-矩形备份" fill="url(#prefix-7PN-linearGradient-3)" transform="matrix(-1 0 0 1 348.958 0)" d="m170 230 8.958 5.529V245L170 239.471z"/></svg></svg></g>
            <g id="icon_name_and_slogan_gap">
            </g>
            <g class="name_and_slogan" id="name_and_slogan_id">
              <g class="name"><g id="nameDefaultGroup"><path d="M166.4 219.2 L183.8 219.2 L183.8 245.6 L174.5 245.6 L174.5 225.2 L166.4 225.2 L166.4 245.6 L158.2 245.6 L158.2 208 L166.4 208 L166.4 219.2 M214.9 239.8 L216.8 239.8 L216.8 245.6 L188.3 245.6 L188.3 229.5 L206.9 229.5 L206.9 225 L188.7 225 L188.7 219.1 L214.9 219.1 L214.9 239.8 Z M196.4 239.8 L206.9 239.8 L206.9 235.4 L196.4 235.4 L196.4 239.8 M249.9 219.2 L249.9 237.8 Q249.9 241 249 242.7 Q248.1 244.3 246.4 244.9 Q244.8 245.5 242.2 245.5 L231.9 245.5 L231.9 257.6 L223.2 257.6 L223.2 219.2 L249.9 219.2 Z M241.2 239.3 L241.2 225.3 L231.9 225.3 L231.9 239.3 L241.2 239.3 M255.4 215.6 L255.4 208 L263.8 208 L263.8 215.6 L255.4 215.6 Z M255.4 245.6 L255.4 219.2 L263.8 219.2 L263.8 245.6 L255.4 245.6 M296.6 219.2 L296.6 248.8 Q296.6 252.1 295.8 254 Q295 255.8 293.4 256.6 Q291.9 257.4 289.3 257.4 L270 257.4 L270 251.8 L288.4 251.8 L288.4 245.3 L270 245.3 L270 219.2 L296.6 219.2 Z M278 239.4 L288.4 239.4 L288.4 225.4 L278 225.4 L278 239.4 M328.9 239.8 L330.8 239.8 L330.8 245.6 L302.3 245.6 L302.3 229.5 L320.9 229.5 L320.9 225 L302.7 225 L302.7 219.1 L328.9 219.1 L328.9 239.8 Z M310.4 239.8 L320.9 239.8 L320.9 235.4 L310.4 235.4 L310.4 239.8 M363.6 245.6 L363.6 225.5 L358.4 225.5 L358.4 245.6 L349.9 245.6 L349.9 225.5 L344.8 225.5 L344.8 245.6 L336.4 245.6 L336.4 219.1 L372.1 219.1 L372.1 245.6 L363.6 245.6 M387.1 234.6 L387.1 240.4 L406.2 240.4 L406.2 245.7 L386 245.7 Q383 245.7 381.4 245 Q379.8 244.3 379.1 243 Q378.5 241.6 378.5 239.3 L378.5 219.1 L406.2 219.1 L406.2 234.6 L387.1 234.6 Z M397.8 224.4 L387.1 224.4 L387.1 229.4 L397.8 229.4 L397.8 224.4 M421.2 238 L421.2 240.3 L430.5 240.3 L430.5 234.8 L412.7 234.8 L412.7 218.9 L438.8 218.9 L438.8 226.1 L430.1 226.1 L430.1 224.1 L421.2 224.1 L421.2 229.5 L439.2 229.5 L439.2 237.2 Q439.2 240.5 438.3 242.3 Q437.4 244.1 435.8 244.8 Q434.1 245.5 431.6 245.5 L412.7 245.5 L412.7 238 L421.2 238 " style="" fill="#000000" transform="matrix(1,0,0,1,0,0)"/></g></g>
              <g class="slogan"><g id="sloganDefaultGroup"/></g>
            </g>
            <g class="border">
            </g>
          </g>
          
          <defs id="defs">
            <mask xmlns="http://www.w3.org/2000/svg" id="mask">
                <rect id="showAll" fill="white" x="55" y="164" width="88" height="114"/>
                <rect id="hideNameBg" fill="black" x="0" y="0" width="0" height="0" stroke-width="2" stroke="black"/>
                <rect id="hideSloganBg" fill="black" x="0" y="0" width="0" height="0" stroke-width="2" stroke="black"/>
            </mask>
          </defs>
          
        </g>
        </svg>