<?xml version="1.0" ?><svg width="64px" height="64px" viewBox="0 0 64 64" style="enable-background:new 0 0 64 64;" version="1.1" xml:space="preserve" xmlns="http://www.w3.org/2000/svg" xmlns:xlink="http://www.w3.org/1999/xlink"><style type="text/css">
	.st0{fill:none;stroke:#EDEDED;stroke-width:0.25;stroke-miterlimit:10;}
	.st1{fill:none;stroke:#BDBDBD;stroke-width:0.25;stroke-miterlimit:10;}
	.st2{fill:none;stroke:#000000;stroke-width:2;stroke-miterlimit:10;}
	.st3{fill:#35C6F4;}
	.st4{fill:#EA386E;}
	.st5{fill:#7065AD;}
	.st6{fill:#FDBE57;}
	.st7{fill:#7BC89C;}
	.st8{fill:#FDD304;}
	.st9{fill:#27255F;}
	.st10{fill:#00AEEF;}
</style><g id="Layer_1"/><g id="Layer_2"><g><path d="M32,11.7c-3.6,0-7.2,1.4-9.9,4.1l0,0c-2.7,2.7-4.1,6.3-4.1,9.9c0,3.6,1.4,7.2,4.1,9.9c2.7,2.7,6.3,4.1,9.9,4.1    c3.6,0,7.2-1.4,9.9-4.1c2.7-2.7,4.1-6.3,4.1-9.9c0-3.6-1.4-7.2-4.1-9.9C39.2,13.1,35.6,11.7,32,11.7z M40.5,34.2    c-2.3,2.3-5.4,3.5-8.5,3.5c-3.1,0-6.1-1.2-8.5-3.5c-2.3-2.3-3.5-5.4-3.5-8.5c0-3.1,1.2-6.1,3.5-8.5c2.3-2.3,5.4-3.5,8.5-3.5    c3.1,0,6.1,1.2,8.5,3.5c2.3,2.3,3.5,5.4,3.5,8.5C44,28.8,42.8,31.8,40.5,34.2z"/><path d="M29.4,26.2l-3.7-3.7L25,23.2l-3,3.2l7.5,7.5l12.4-12.4L38,17.6L29.4,26.2z M29.5,31.1l-4.7-4.7l1-1.1l3.7,3.7l8.6-8.6    l1.1,1.1L29.5,31.1z"/><path d="M53.3,23.3c-0.1-0.6-0.3-1-0.5-1.5c-0.4-0.6-0.9-1.1-1.2-1.6c-0.4-0.4-0.7-0.9-0.8-1.2c-0.1-0.2-0.1-0.5-0.1-0.9    c0-0.5,0-1,0-1.6c0-0.7-0.1-1.5-0.5-2.3c-0.3-0.5-0.7-0.8-1.1-1.1c-0.6-0.4-1.2-0.6-1.8-0.9c-0.5-0.2-1-0.5-1.2-0.7    c-0.3-0.3-0.6-1-1-1.8c-0.2-0.4-0.4-0.8-0.6-1.2c-0.3-0.4-0.6-0.8-1.1-1.1C42.7,7,41.9,7,41.1,7C40.5,7,40,7,39.5,7    c-0.4,0-0.7,0-0.9-0.1c-0.4-0.1-1-0.6-1.6-1.2c-0.3-0.3-0.7-0.6-1.1-0.8c-0.4-0.3-0.9-0.5-1.5-0.5c-0.1,0-0.2,0-0.3,0    c-0.5,0-1,0.1-1.4,0.3C32,4.9,31.5,5.2,31,5.5c-0.5,0.3-0.9,0.4-1.2,0.5l-0.2,0c-0.4,0-0.9-0.1-1.5-0.3c-0.6-0.2-1.3-0.4-2.1-0.4    c-0.3,0-0.7,0-1.1,0.2c-0.5,0.2-1,0.5-1.3,0.8c-0.5,0.5-0.9,1.1-1.2,1.6c-0.4,0.5-0.7,0.9-1,1C21.2,9,21,9.1,20.7,9.1    c-0.5,0.1-1.1,0.2-1.8,0.4c-0.7,0.2-1.4,0.4-2,1c-0.4,0.4-0.6,0.9-0.8,1.3c-0.2,0.7-0.3,1.4-0.4,2c-0.1,0.6-0.2,1.1-0.4,1.3    c-0.2,0.4-0.8,0.8-1.5,1.3c-0.3,0.3-0.7,0.5-1.1,0.9c-0.3,0.3-0.7,0.8-0.8,1.3c-0.1,0.4-0.2,0.7-0.2,1.1c0,0.8,0.2,1.5,0.4,2.1    c0.2,0.6,0.3,1.2,0.3,1.5l0,0.2c0,0.4-0.3,1-0.7,1.7c-0.2,0.4-0.4,0.7-0.6,1.2c-0.2,0.4-0.3,0.9-0.3,1.4c0,0.1,0,0.2,0,0.3    c0.1,0.6,0.3,1,0.5,1.5c0.4,0.6,0.9,1.1,1.2,1.6c0.4,0.4,0.7,0.9,0.8,1.2c0.1,0.2,0.1,0.5,0.1,0.9c0,0.5,0,1,0,1.6    c0,0.7,0.1,1.5,0.5,2.3c0.3,0.5,0.7,0.8,1.1,1.1c0.6,0.4,1.2,0.6,1.8,0.9c0.5,0.2,1,0.5,1.2,0.7c0.3,0.3,0.6,1,1,1.8    c0.2,0.4,0.4,0.8,0.6,1.2c0.3,0.4,0.6,0.8,1.1,1.1c0.1,0.1,0.3,0.1,0.4,0.2l-4.2,12.5l6.6-2.1l4,5.7l4.6-13.7c0,0,0.1,0,0.1-0.1    l4.6,13.7l4-5.7l6.6,2.1l-4.7-14c0,0,0.1-0.1,0.1-0.1c0.2-0.1,0.4-0.2,0.8-0.3c0.5-0.1,1.1-0.2,1.8-0.4c0.7-0.2,1.4-0.4,2-1    c0.4-0.4,0.6-0.9,0.8-1.3c0.2-0.7,0.3-1.4,0.4-2c0.1-0.6,0.2-1.1,0.4-1.3c0.2-0.4,0.8-0.8,1.5-1.3c0.3-0.3,0.7-0.5,1.1-0.9    c0.3-0.3,0.7-0.8,0.8-1.3c0.1-0.4,0.2-0.7,0.2-1.1c0-0.8-0.2-1.5-0.4-2.1c-0.2-0.6-0.3-1.2-0.3-1.5l0-0.2c0-0.4,0.3-1,0.7-1.7    c0.2-0.4,0.4-0.7,0.6-1.2c0.2-0.4,0.3-0.9,0.3-1.4C53.4,23.5,53.3,23.4,53.3,23.3z M26.7,55.8l-2.5-3.6l-4.2,1.3l3.1-9.1    c0.5,0,1.1,0,1.5,0c0.4,0,0.7,0,0.9,0.1c0.4,0.1,1,0.6,1.6,1.2c0.3,0.3,0.7,0.6,1.1,0.8c0.4,0.3,0.9,0.5,1.5,0.5c0,0,0,0,0,0    L26.7,55.8z M39.8,52.2l-2.5,3.6l-3.4-10.2c0.1,0,0.3-0.1,0.4-0.1l0.2,0c0.4,0,0.9,0.1,1.5,0.3c0.6,0.2,1.3,0.4,2.1,0.4    c0.3,0,0.7,0,1.1-0.2c0.5-0.2,1-0.5,1.3-0.8c0.2-0.2,0.4-0.5,0.6-0.7l3,9.1L39.8,52.2z M51.2,24.3c-0.2,0.4-0.4,0.9-0.7,1.5    c-0.3,0.6-0.6,1.2-0.7,1.9c0,0.1,0,0.3,0,0.4c0,0.8,0.2,1.5,0.4,2.1c0.2,0.6,0.3,1.2,0.3,1.5c0,0.2,0,0.3-0.1,0.4    c-0.1,0.2-0.2,0.3-0.4,0.5c-0.3,0.3-0.8,0.7-1.3,1c-0.5,0.4-1.1,0.8-1.5,1.5c-0.3,0.4-0.4,0.9-0.5,1.3c-0.2,0.7-0.2,1.3-0.4,1.8    c-0.1,0.5-0.3,0.9-0.5,1.1c-0.1,0.1-0.3,0.2-0.6,0.3c-0.4,0.2-1,0.2-1.6,0.4c-0.6,0.1-1.3,0.3-2,0.7c-0.9,0.6-1.4,1.4-1.9,2    c-0.2,0.3-0.5,0.6-0.7,0.8c-0.2,0.2-0.4,0.3-0.5,0.4c-0.1,0-0.2,0.1-0.4,0.1c-0.4,0-0.9-0.1-1.5-0.3c-0.6-0.2-1.3-0.4-2.1-0.4    c-0.1,0-0.3,0-0.4,0c-1,0.1-1.8,0.6-2.5,1c-0.3,0.2-0.7,0.3-0.9,0.5c-0.3,0.1-0.5,0.2-0.7,0.2l-0.1,0c-0.2,0-0.4-0.1-0.6-0.2    c-0.4-0.2-0.8-0.6-1.3-1.1c-0.5-0.4-1.1-0.9-1.8-1.1c-0.6-0.2-1.1-0.2-1.6-0.2c-0.6,0-1.2,0.1-1.6,0c-0.6,0-1-0.1-1.2-0.2    c-0.1-0.1-0.3-0.2-0.4-0.5c-0.2-0.4-0.5-0.9-0.7-1.5c-0.3-0.6-0.6-1.3-1.1-1.8c-0.8-0.7-1.7-1.1-2.4-1.4c-0.4-0.2-0.7-0.3-0.9-0.5    c-0.2-0.2-0.4-0.3-0.5-0.4c-0.1-0.2-0.2-0.6-0.2-1.2c0-0.5,0-1,0-1.6c0-0.5,0-1-0.2-1.6c-0.4-1-1-1.7-1.6-2.3    c-0.3-0.3-0.5-0.6-0.6-0.8c-0.2-0.3-0.2-0.5-0.2-0.6l0-0.1c0-0.2,0-0.4,0.2-0.7c0.2-0.4,0.4-0.9,0.7-1.5c0.3-0.6,0.6-1.2,0.7-1.9    c0-0.1,0-0.3,0-0.4c0-0.8-0.2-1.5-0.4-2.1c-0.2-0.6-0.3-1.2-0.3-1.5c0-0.2,0-0.3,0.1-0.4c0.1-0.2,0.2-0.3,0.4-0.5    c0.3-0.3,0.8-0.7,1.3-1c0.5-0.4,1.1-0.8,1.5-1.5c0.3-0.4,0.4-0.9,0.5-1.3c0.2-0.7,0.2-1.3,0.4-1.8c0.1-0.5,0.3-0.9,0.5-1.1l0,0    c0.1-0.1,0.3-0.2,0.6-0.3c0.4-0.2,1-0.2,1.6-0.4c0.6-0.1,1.3-0.3,2-0.7c0.9-0.6,1.4-1.4,1.9-2c0.2-0.3,0.5-0.6,0.7-0.8    c0.2-0.2,0.4-0.3,0.5-0.4c0.1,0,0.2-0.1,0.4-0.1c0.4,0,0.9,0.1,1.5,0.3c0.6,0.2,1.3,0.4,2.1,0.4c0.1,0,0.3,0,0.4,0    c1-0.1,1.8-0.6,2.5-1c0.3-0.2,0.7-0.3,0.9-0.5c0.3-0.1,0.5-0.2,0.7-0.2l0.1,0c0.2,0,0.4,0.1,0.6,0.2c0.4,0.2,0.8,0.6,1.3,1.1    c0.5,0.4,1.1,0.9,1.8,1.1C38.5,9,39,9,39.5,9c0.6,0,1.2-0.1,1.6,0c0.6,0,1,0.1,1.2,0.2c0.1,0.1,0.3,0.2,0.4,0.5    c0.2,0.4,0.5,0.9,0.7,1.5c0.3,0.6,0.6,1.3,1.1,1.8c0.8,0.7,1.7,1.1,2.4,1.4c0.4,0.2,0.7,0.3,0.9,0.5c0.2,0.2,0.4,0.3,0.5,0.4    c0.1,0.2,0.2,0.6,0.2,1.2c0,0.5,0,1,0,1.6c0,0.5,0,1,0.2,1.6c0.4,1,1,1.7,1.6,2.3c0.3,0.3,0.5,0.6,0.6,0.8    c0.2,0.3,0.2,0.5,0.2,0.6l0,0.1C51.4,23.8,51.3,24,51.2,24.3z"/></g></g></svg>