<svg xmlns="http://www.w3.org/2000/svg" shape-rendering="geometricPrecision" text-rendering="geometricPrecision" image-rendering="optimizeQuality" fill-rule="evenodd" clip-rule="evenodd" viewBox="0 0 365 511.41"><path d="M312.22 319.17 365 442.58l-66.17-.77-54.38 44.12-47.7-116.25c13.79-3.35 27.44-10.32 41.22-21.13l1.66-1.22-.03-.04.9-.7-.04-.06c1.75-1.4 3.55-2.83 5.15-4.05 3.33.21 6.93.34 11.42.13 6.19-.28 12.83-1.26 20.17-3.62 6.46-2.08 12.45-4.63 17.95-7.67a92.904 92.904 0 0 0 15.92-11.07l-.04-.05 1.19-1.03zM176.94.02c6.61-.18 12.52.85 18.01 2.74 5.06 1.74 9.7 4.23 14.27 7.13 4.64 2.88 9.01 6.59 13.68 10.59 4.47 3.82 9.4 8.02 14.35 10.85l.32.19c2.04.78 7.25.99 12.7 1.18 18.99.7 39.48 1.46 54.86 24.29l.84 1.35c11.01 16.92 11.83 29.59 12.62 41.99l.04.87c.25 3.82.69 7.41 1.89 10.96 1.32 3.75 3.64 8.07 7.74 13.5 11.11 14.68 17.97 27.55 20.79 40.04 3.34 14.82 1.15 28.02-6.3 41.3-5.31 9.44-12.4 15.52-18.65 20.87-2.26 1.93-3.38 1.55-3.83 2.61l-.46 1.01c-1.07 3.17-1.14 7.07-1.19 11.04-.15 10.2-.33 20.77-7.49 34.9-4.49 8.84-10.36 16.31-17.53 22.41-7.04 6.06-15.27 10.57-24.61 13.58-9.57 3.08-17.24 2.54-24.49 2.02-2.77-.19-4.74-.67-5.07-.53-5.2 2.25-10.72 6.69-15.91 10.84l-1.2.9c-32.39 25.86-61.07 23.86-91.96-.9-5.18-4.15-10.71-8.58-15.92-10.76-.52-.23-4.25.39-5.06.45-7.26.52-14.93 1.06-24.49-2.02-9.35-3.01-17.57-7.52-24.61-13.5-7.13-6.06-12.99-13.56-17.53-22.49-7.18-14.14-7.34-24.71-7.49-34.91-.06-4.41-.14-8.72-1.57-12.04-.5-1.17-1.57-.61-3.91-2.61-6.24-5.34-13.35-11.41-18.66-20.87-7.45-13.28-9.63-26.48-6.29-41.3 2.81-12.5 9.67-25.36 20.78-40.04 4.1-5.43 6.43-9.75 7.72-13.51l.25-.7c1.03-3.31 1.43-6.68 1.65-10.25l.09-1.36c.81-12.58 1.77-25.45 13.42-42.77 15.37-22.9 35.87-23.67 54.87-24.37 5.79-.21 11.31-.43 13.04-1.33 4.94-2.87 9.86-7.07 14.35-10.91l1.22-.97c4.21-3.57 8.18-6.91 12.37-9.56 4.46-2.89 9.11-5.38 14.33-7.17C164.41.87 170.29-.16 176.94.02zm.01 17.56c8.32-.36 14.88 2.54 21.5 6.75 8.4 5.33 17.86 15.85 29.53 22.53 16.43 9.38 46.85-3.57 62.43 19.58 9.09 13.49 9.51 24.08 10.19 34.53.73 11.28 2.71 21.65 14.25 36.92 19.11 25.27 23.09 42.09 13.25 59.62-6.72 11.95-20.85 18.59-24.12 26.16-6.96 16.1.74 28.24-8.79 47.01-6.61 13.03-16.82 21.61-30.42 25.99-11.46 3.69-22.96-1.65-32.14 2.21-16.13 6.77-28.03 22.53-40.86 26.51-4.95 1.53-9.89 2.29-14.82 2.26-4.93.03-9.87-.73-14.82-2.26-12.84-3.98-24.73-19.74-40.86-26.51-9.18-3.86-20.68 1.48-32.15-2.21-13.59-4.38-23.8-12.96-30.41-25.99-9.53-18.77-1.83-30.91-8.79-47.01-3.27-7.57-17.41-14.21-24.12-26.16-9.85-17.53-5.86-34.35 13.24-59.62 11.54-15.27 13.52-25.64 14.25-36.92.68-10.45 1.11-21.04 10.19-34.53 15.58-23.15 46.01-10.2 62.43-19.58 11.68-6.68 21.13-17.2 29.54-22.53 6.62-4.21 13.18-7.11 21.5-6.75zm1.92 110.29 12.5 29.27 31.71 2.84a2.53 2.53 0 0 1 2.31 2.75 2.55 2.55 0 0 1-.86 1.7l-23.98 20.94 7.09 31.05a2.543 2.543 0 0 1-3.87 2.7l-27.25-16.29-27.33 16.34c-1.21.72-2.77.33-3.49-.88a2.53 2.53 0 0 1-.3-1.87l7.1-31.05-23.99-20.94a2.538 2.538 0 0 1-.24-3.59c.47-.54 1.12-.83 1.78-.87l31.62-2.83 12.51-29.29c.55-1.3 2.04-1.9 3.34-1.35.64.27 1.1.78 1.35 1.37zm-2.35-52.98c55.04 0 99.67 44.63 99.67 99.67 0 55.05-44.63 99.67-99.67 99.67-55.05 0-99.67-44.62-99.67-99.67 0-55.04 44.62-99.67 99.67-99.67zm0 16.83c45.75 0 82.84 37.09 82.84 82.84 0 45.76-37.09 82.84-82.84 82.84-45.76 0-82.84-37.08-82.84-82.84 0-45.75 37.08-82.84 82.84-82.84zm-.33 280.31-55.64 139.38-54.38-44.11-66.17.76 57.72-137.29 1.05.59c5.5 3.01 11.49 5.57 17.91 7.63 7.33 2.36 13.97 3.34 20.16 3.62 4.44.21 8.02.08 11.33-.12 1.63 1.23 3.51 2.73 5.31 4.18l.04.03c20.08 16.08 40.24 24.8 61.63 25.32l1.04.01z"/></svg>