<?xml version="1.0" encoding="iso-8859-1"?>
<!-- Generator: Adobe Illustrator 19.0.0, SVG Export Plug-In . SVG Version: 6.00 Build 0)  -->
<svg version="1.1" id="Layer_1" xmlns="http://www.w3.org/2000/svg" xmlns:xlink="http://www.w3.org/1999/xlink" x="0px" y="0px"
	 viewBox="0 0 512 512" style="enable-background:new 0 0 512 512;" xml:space="preserve">
<g>
	<g>
		<g>
			<path d="M176.576,157.952l-7.552-7.552l15.083-15.083l22.635,22.635c4.16,4.16,10.923,4.16,15.083,0
				c4.16-4.16,4.16-10.923,0-15.083l-30.165-30.165c-4.16-4.16-10.923-4.16-15.083,0l-60.331,60.331
				c-4.16,4.16-4.16,10.923,0,15.083c2.091,2.069,4.821,3.115,7.552,3.115c2.731,0,5.461-1.024,7.509-3.115l22.635-22.635
				l7.552,7.552c2.091,2.069,4.821,3.115,7.552,3.115s5.461-1.045,7.531-3.115C180.736,168.875,180.736,162.112,176.576,157.952z"/>
			<path d="M297.28,369.152l30.165,30.165c2.091,2.069,4.821,3.115,7.552,3.115c2.731,0,5.461-1.045,7.552-3.093
				c4.16-4.16,4.16-10.923,0-15.083l-22.635-22.635l15.083-15.083l7.531,7.531c2.091,2.069,4.821,3.115,7.552,3.115
				c2.731,0,5.461-1.045,7.531-3.115c4.16-4.16,4.16-10.923,0-15.083l-7.531-7.531l15.083-15.104l22.635,22.635
				c4.16,4.16,10.923,4.16,15.083,0c4.16-4.16,4.16-10.923,0-15.083l-30.165-30.187c-2.005-1.984-4.715-3.115-7.552-3.115
				s-5.547,1.109-7.552,3.115l-60.331,60.352C293.12,358.229,293.12,364.992,297.28,369.152z"/>
			<path d="M236.949,173.035l-29.995,29.973c-0.149,0.149-0.277,0.277-0.427,0.427l-29.952,29.952c-4.16,4.16-4.16,10.923,0,15.083
				c4.16,4.16,10.923,4.16,15.083,0l11.968-11.968v34.581c0,5.888,4.779,10.667,10.667,10.667s10.667-4.779,10.645-10.667v-34.965
				c5.568,4.309,12.352,6.635,19.52,6.635c8.555,0,16.597-3.328,22.635-9.365c12.48-12.48,12.48-32.789,0-45.269l-15.083-15.083
				C247.851,168.875,241.109,168.875,236.949,173.035z M252.053,218.304c-2.027,2.005-4.693,3.115-7.552,3.115
				c-2.859,0-5.525-1.109-7.552-3.136l-7.552-7.531l15.104-15.104l7.552,7.552C256.213,207.381,256.213,214.144,252.053,218.304z"/>
			<path d="M236.949,308.8l30.165,30.187c2.091,2.069,4.821,3.115,7.552,3.115c2.731,0,5.461-1.045,7.552-3.136
				c4.16-4.16,4.16-10.923,0-15.083l-22.635-22.635l15.061-15.061l7.552,7.552c2.091,2.069,4.821,3.115,7.552,3.115
				c2.731,0,5.461-1.045,7.531-3.115c4.16-4.16,4.16-10.923,0-15.083l-7.552-7.531L304.832,256l22.613,22.635
				c4.16,4.16,10.923,4.16,15.083,0c4.16-4.16,4.16-10.923,0-15.083l-30.165-30.165c-4.16-4.16-10.923-4.16-15.083,0l-60.331,60.331
				C232.768,297.877,232.768,304.64,236.949,308.8z"/>
			<path d="M432.939,118.549c-6.699-6.4-13.461-12.821-20.053-19.413c-6.613-6.613-13.077-13.397-19.499-20.139
				C356.352,40.149,318.101,0,256,0C114.837,0,0,114.837,0,256s114.837,256,256,256s256-114.837,256-255.979
				C512,193.813,471.787,155.541,432.939,118.549z M377.941,93.696c6.549,6.869,13.141,13.781,19.861,20.501
				c6.699,6.72,13.611,13.269,20.437,19.776c20.885,19.883,40.853,39.253,54.613,61.653c-6.293-1.984-12.885-3.477-19.648-4.672
				c-0.32-0.064-0.597-0.128-0.917-0.149c-2.581-0.448-5.184-0.896-7.765-1.323c-26.816-4.352-57.259-9.301-84.949-37.013
				c-27.691-27.712-32.64-58.133-36.992-84.949c-1.579-9.664-3.307-19.307-6.144-28.288
				C338.752,52.971,358.101,72.896,377.941,93.696z M301.504,70.912c4.629,28.523,10.411,64.021,42.987,96.619
				c32.576,32.597,68.075,38.357,96.619,42.987c0.427,0.064,0.768,0.128,1.195,0.213C445.867,225.472,448,240.619,448,256
				c0,105.856-86.123,192-192,192S64,361.856,64,256S150.123,64,256,64c15.339,0,30.485,2.133,45.291,5.717
				C301.355,70.144,301.419,70.485,301.504,70.912z M256,490.667c-129.387,0-234.667-105.28-234.667-234.667
				S126.613,21.333,256,21.333c5.077,0,9.813,0.597,14.549,1.216c15.851,2.752,22.336,10.731,26.197,24.512
				c-13.397-2.603-26.987-4.395-40.747-4.395C138.389,42.667,42.667,138.368,42.667,256S138.368,469.333,256,469.333
				S469.333,373.632,469.333,256c0-13.781-1.771-27.349-4.373-40.725c13.76,3.861,21.76,10.347,24.491,26.197
				c0.619,4.715,1.216,9.451,1.216,14.528C490.667,385.387,385.387,490.667,256,490.667z"/>
		</g>
	</g>
</g>
<g>
</g>
<g>
</g>
<g>
</g>
<g>
</g>
<g>
</g>
<g>
</g>
<g>
</g>
<g>
</g>
<g>
</g>
<g>
</g>
<g>
</g>
<g>
</g>
<g>
</g>
<g>
</g>
<g>
</g>
</svg>
