<?xml version="1.0" encoding="iso-8859-1"?>
<!-- Generator: Adobe Illustrator 19.0.0, SVG Export Plug-In . SVG Version: 6.00 Build 0)  -->
<svg version="1.1" id="Layer_1" xmlns="http://www.w3.org/2000/svg" xmlns:xlink="http://www.w3.org/1999/xlink" x="0px" y="0px"
	 viewBox="0 0 512.01 512.01" style="enable-background:new 0 0 512.01 512.01;" xml:space="preserve">
<g>
	<g>
		<path d="M165.495,266.245c-2.236-3.772-5.035-7.125-8.363-9.95c-3.234-2.739-6.827-5.129-10.65-7.091
			c-3.627-1.877-7.049-3.601-10.291-5.222c-3.149-1.562-5.828-2.961-8.047-4.215c-1.954-1.075-3.473-2.176-4.574-3.277
			c-0.973-0.973-1.647-1.954-2.065-3.021c-0.427-1.101-0.64-2.475-0.64-4.096c0-5.103,1.715-10.308,14.379-10.308
			c3.866,0,7.723,0.512,11.486,1.527c3.84,1.041,7.262,2.338,10.189,3.9l4.412,2.321l4.361-18.722l-2.628-1.391
			c-3.661-1.929-7.987-3.516-12.86-4.702c-9.651-2.321-20.463-2.372-28.962,0.051c-4.403,1.237-8.235,3.149-11.409,5.641
			c-3.277,2.577-5.837,5.828-7.637,9.66c-1.784,3.797-2.697,8.201-2.697,13.073c0,4.429,0.879,8.371,2.603,11.733
			c1.638,3.226,3.849,6.178,6.588,8.764c2.654,2.466,5.709,4.676,9.097,6.554c3.251,1.809,6.613,3.524,10.112,5.163
			c2.978,1.399,5.803,2.739,8.439,4.053c2.398,1.178,4.497,2.5,6.246,3.959c1.613,1.314,2.91,2.825,3.84,4.463
			c0.828,1.485,1.237,3.311,1.237,5.572c0,3.959-1.391,6.758-4.361,8.798c-5.803,3.985-16.29,4.361-26.172,1.929
			c-4.224-1.041-8.124-2.372-11.571-3.977l-4.224-1.954l-4.565,18.534l2.825,1.348c4.463,2.133,9.446,3.763,14.822,4.813
			c5.291,1.05,10.522,1.579,15.565,1.579c5.274,0,10.291-0.708,14.899-2.116c4.659-1.425,8.823-3.516,12.339-6.187
			c3.558-2.714,6.451-6.05,8.576-9.958c2.159-3.968,3.243-8.474,3.243-13.406C169.037,274.915,167.851,270.264,165.495,266.245z"/>
	</g>
</g>
<g>
	<g>
		<path d="M230.554,202.049h-18.739v0l-42.948,107.912h22.477l9.028-24.226h41.498l9.173,24.226h22.46L230.554,202.049z
			 M207.428,266.927l13.764-37.299l13.747,37.299H207.428z"/>
	</g>
</g>
<g>
	<g>
		<polygon points="301.781,291 301.781,202.049 280.252,202.049 280.252,309.961 343.612,309.961 343.612,291 		"/>
	</g>
</g>
<g>
	<g>
		<polygon points="372.813,291 372.813,264.367 413.005,264.367 413.005,245.398 372.813,245.398 372.813,221.018 414.805,221.018 
			414.805,202.049 351.292,202.049 351.292,309.961 415.249,309.961 415.249,291 		"/>
	</g>
</g>
<g>
	<g>
		<path d="M508.22,242.599l-28.587-46.515l1.502-54.579c0.265-9.643-4.915-18.62-13.406-23.219l-48.017-25.984l-25.993-48.017
			c-4.48-8.277-13.133-13.414-22.511-13.414c-0.239,0-0.469,0-0.708,0.009l-54.579,1.502L269.406,3.794
			c-4.104-2.526-8.747-3.789-13.397-3.789c-4.651,0-9.293,1.263-13.406,3.789L196.088,32.38l-54.579-1.502
			c-0.239-0.009-0.469-0.009-0.708-0.009c-9.378,0-18.031,5.137-22.511,13.414L92.297,92.301l-48.017,25.984
			c-8.491,4.591-13.67,13.568-13.406,23.219l1.502,54.579L3.789,242.599c-5.052,8.226-5.052,18.586,0,26.812l28.587,46.515
			l-1.502,54.579c-0.265,9.651,4.915,18.628,13.406,23.219l48.017,25.984l25.992,48.017c4.48,8.277,13.133,13.414,22.511,13.414
			c0.239,0,0.469,0,0.708-0.009l54.579-1.502l46.515,28.587c4.113,2.526,8.755,3.789,13.406,3.789c4.651,0,9.293-1.263,13.406-3.789
			l46.515-28.587l54.579,1.502c0.239,0.009,0.469,0.009,0.708,0.009c9.378,0,18.031-5.137,22.511-13.414l25.993-48.017
			l48.017-25.984c8.491-4.591,13.67-13.568,13.406-23.219l-1.502-54.579l28.587-46.515
			C513.271,261.185,513.271,250.825,508.22,242.599z M453.828,309.014l1.715,62.191l-54.716,29.619l-29.619,54.716l-62.191-1.715
			l-53.009,32.58l-53.009-32.58l-62.191,1.715l-29.619-54.716l-54.716-29.619l1.715-62.191l-32.58-53.009l32.58-53.009
			l-1.715-62.191l54.716-29.619l29.619-54.716l62.191,1.715l53.009-32.58l53.009,32.58l62.191-1.715l29.619,54.716l54.716,29.619
			l-1.715,62.191l32.58,53.009L453.828,309.014z"/>
	</g>
</g>
<g>
	<g>
		<circle cx="256.009" cy="89.605" r="12.8"/>
	</g>
</g>
<g>
	<g>
		<circle cx="256.009" cy="422.405" r="12.8"/>
	</g>
</g>
<g>
	<g>
		<circle cx="172.809" cy="111.877" r="12.8"/>
	</g>
</g>
<g>
	<g>
		<circle cx="339.209" cy="400.107" r="12.8"/>
	</g>
</g>
<g>
	<g>
		<circle cx="339.209" cy="111.877" r="12.8"/>
	</g>
</g>
<g>
	<g>
		<circle cx="172.809" cy="400.107" r="12.8"/>
	</g>
</g>
<g>
</g>
<g>
</g>
<g>
</g>
<g>
</g>
<g>
</g>
<g>
</g>
<g>
</g>
<g>
</g>
<g>
</g>
<g>
</g>
<g>
</g>
<g>
</g>
<g>
</g>
<g>
</g>
<g>
</g>
</svg>
